<svg xmlns="http://www.w3.org/2000/svg" xmlns:xlink="http://www.w3.org/1999/xlink" width="1920" zoomAndPan="magnify" viewBox="0 0 1440 809.999993" height="1080" preserveAspectRatio="xMidYMid meet" version="1.2"><defs><clipPath id="edd4b8f974"><path d="M 1009 599 L 1440 599 L 1440 810 L 1009 810 Z M 1009 599 "/></clipPath><clipPath id="3b119577be"><path d="M 1130.410156 1133.375 L 945.1875 762.285156 L 1467.933594 501.363281 L 1653.160156 872.453125 Z M 1130.410156 1133.375 "/></clipPath><clipPath id="1d74577aab"><path d="M 1130.410156 1133.375 L 945.1875 762.285156 L 1467.933594 501.363281 L 1653.160156 872.453125 Z M 1130.410156 1133.375 "/></clipPath></defs><g id="fe6148aee2"><rect x="0" width="1440" y="0" height="809.999993" style="fill:#ffffff;fill-opacity:1;stroke:none;"/><rect x="0" width="1440" y="0" height="809.999993" style="fill:#faf8ff;fill-opacity:1;stroke:none;"/><path style=" stroke:none;fill-rule:nonzero;fill:#5f259f;fill-opacity:1;" d="M 547.984375 -84.101562 C 562.496094 -163.964844 500.636719 -225.164062 438.238281 -266.316406 C 386.902344 -298.929688 322.503906 -326.246094 261.25 -327.015625 C 155.601562 -326.257812 81.578125 -243.289062 17.832031 -166.539062 C -3.757812 -140.300781 -24.996094 -113.398438 -45.007812 -86.054688 C -76.550781 -42.101562 -111.054688 8.515625 -111.472656 62.914062 C -111.648438 108.003906 -82.886719 145.425781 -40.804688 155.90625 C -9.28125 164.140625 23.886719 158.484375 54.898438 149.046875 C 93.222656 137.246094 128.441406 120.476562 167.085938 105.625 C 203.273438 91.535156 240.28125 80.042969 277.921875 72.507812 C 349.328125 57.824219 427.988281 58.921875 487.9375 13.054688 C 519.121094 -10.234375 541.417969 -45.578125 547.960938 -83.976562 Z M 547.984375 -84.101562 "/><g clip-rule="nonzero" clip-path="url(#edd4b8f974)"><g clip-rule="nonzero" clip-path="url(#3b119577be)"><g clip-rule="nonzero" clip-path="url(#1d74577aab)"><path style=" stroke:none;fill-rule:nonzero;fill:#5f259f;fill-opacity:1;" d="M 1028.746094 911.125 C 1062.269531 996.867188 1148.753906 1092.480469 1249.292969 1062.136719 C 1308.84375 1044.15625 1354.425781 997.039062 1409.125 968.980469 C 1458.058594 940.863281 1520.890625 934.394531 1558.386719 889.707031 C 1593.878906 846.449219 1588.941406 784.578125 1572.367188 734.132812 C 1549.296875 664.925781 1493.8125 578.5 1409.824219 604.5 C 1366.78125 617.5625 1333.722656 650.230469 1302.3125 681.28125 C 1260.597656 723.21875 1215.429688 761.160156 1153.671875 735.789062 C 1120.453125 724.25 1090.390625 699 1055.464844 709.742188 C 1037.066406 716.527344 1025.695312 733.492188 1018.890625 751.894531 C 1001.449219 802.886719 1010.117188 861.105469 1028.691406 910.980469 Z M 1028.746094 911.125 "/></g></g></g></g></svg>