<svg id="_0174_scrum_board" xmlns="http://www.w3.org/2000/svg" xmlns:xlink="http://www.w3.org/1999/xlink" viewBox="0 0 500 500" data-imageid="scrum-board-51" imageName="Scrum Board" class="illustrations_image" style="width: 166px;"><defs><style>.cls-1_scrum-board-51{opacity:.68;}.cls-1_scrum-board-51,.cls-2_scrum-board-51,.cls-3_scrum-board-51,.cls-4_scrum-board-51,.cls-5_scrum-board-51,.cls-6_scrum-board-51,.cls-7_scrum-board-51,.cls-8_scrum-board-51,.cls-9_scrum-board-51,.cls-10_scrum-board-51,.cls-11_scrum-board-51,.cls-12_scrum-board-51,.cls-13_scrum-board-51,.cls-14_scrum-board-51,.cls-15_scrum-board-51,.cls-16_scrum-board-51,.cls-17_scrum-board-51,.cls-18_scrum-board-51,.cls-19_scrum-board-51,.cls-20_scrum-board-51,.cls-21_scrum-board-51,.cls-22_scrum-board-51,.cls-23_scrum-board-51,.cls-24_scrum-board-51,.cls-25_scrum-board-51{stroke-width:0px;}.cls-1_scrum-board-51,.cls-20_scrum-board-51,.cls-21_scrum-board-51{isolation:isolate;}.cls-1_scrum-board-51,.cls-20_scrum-board-51,.cls-21_scrum-board-51,.cls-25_scrum-board-51{fill:#68e1fd;}.cls-2_scrum-board-51{fill:url(#linear-gradient);}.cls-26_scrum-board-51{fill:none;stroke:#68e1fd;stroke-miterlimit:10;stroke-width:.66px;}.cls-3_scrum-board-51{fill:url(#linear-gradient-11-scrum-board-51);}.cls-4_scrum-board-51{fill:url(#linear-gradient-12-scrum-board-51);}.cls-5_scrum-board-51{fill:url(#linear-gradient-13-scrum-board-51);}.cls-6_scrum-board-51{fill:url(#linear-gradient-10-scrum-board-51);}.cls-7_scrum-board-51{fill:url(#linear-gradient-17-scrum-board-51);}.cls-8_scrum-board-51{fill:url(#linear-gradient-16-scrum-board-51);}.cls-9_scrum-board-51{fill:url(#linear-gradient-15-scrum-board-51);}.cls-10_scrum-board-51{fill:url(#linear-gradient-18-scrum-board-51);}.cls-11_scrum-board-51{fill:url(#linear-gradient-14-scrum-board-51);}.cls-12_scrum-board-51{fill:url(#linear-gradient-4-scrum-board-51);}.cls-13_scrum-board-51{fill:url(#linear-gradient-2-scrum-board-51);}.cls-14_scrum-board-51{fill:url(#linear-gradient-3-scrum-board-51);}.cls-15_scrum-board-51{fill:url(#linear-gradient-8-scrum-board-51);}.cls-16_scrum-board-51{fill:url(#linear-gradient-9-scrum-board-51);}.cls-17_scrum-board-51{fill:url(#linear-gradient-7-scrum-board-51);}.cls-18_scrum-board-51{fill:url(#linear-gradient-5-scrum-board-51);}.cls-19_scrum-board-51{fill:url(#linear-gradient-6-scrum-board-51);}.cls-20_scrum-board-51{opacity:.93;}.cls-21_scrum-board-51{opacity:.24;}.cls-22_scrum-board-51{fill:#231f20;}.cls-23_scrum-board-51{fill:#fff;}.cls-24_scrum-board-51{fill:#ffb4a3;}</style><linearGradient id="linear-gradient-scrum-board-51" x1="246.81" y1="439.5" x2="305.46" y2="-84.38" gradientUnits="userSpaceOnUse"><stop offset="0" stop-color="#231f20" stop-opacity="0"/><stop offset="1" stop-color="#231f20"/></linearGradient><linearGradient id="linear-gradient-2-scrum-board-51" x1="290.91" y1="3979.18" x2="276.68" y2="3559.78" gradientTransform="translate(-31 3954.29) scale(1 -1)" gradientUnits="userSpaceOnUse"><stop offset="0" stop-color="#fff" stop-opacity="0"/><stop offset=".95" stop-color="#fff"/></linearGradient><linearGradient id="linear-gradient-3-scrum-board-51" x1="342.45" y1="3801.97" x2="344.09" y2="3690.28" gradientTransform="translate(-31 3954.29) scale(1 -1)" xlink:href="#linear-gradient-scrum-board-51"/><linearGradient id="linear-gradient-4-scrum-board-51" x1="461.88" y1="3833.66" x2="463.52" y2="3721.97" gradientTransform="translate(-31 3954.29) scale(1 -1)" xlink:href="#linear-gradient-scrum-board-51"/><linearGradient id="linear-gradient-5-scrum-board-51" x1="177.58" y1="3791.65" x2="182.51" y2="3677.08" gradientTransform="translate(-31 3954.29) scale(1 -1)" xlink:href="#linear-gradient-scrum-board-51"/><linearGradient id="linear-gradient-6-scrum-board-51" x1="176.81" y1="3791.62" x2="181.75" y2="3677.05" gradientTransform="translate(-31 3954.29) scale(1 -1)" xlink:href="#linear-gradient-scrum-board-51"/><linearGradient id="linear-gradient-7-scrum-board-51" x1="298.58" y1="3792.67" x2="303.5" y2="3678.11" gradientTransform="translate(-31 3954.29) scale(1 -1)" xlink:href="#linear-gradient-scrum-board-51"/><linearGradient id="linear-gradient-8-scrum-board-51" x1="419.71" y1="3792.67" x2="424.64" y2="3678.11" gradientTransform="translate(-31 3954.29) scale(1 -1)" xlink:href="#linear-gradient-scrum-board-51"/><linearGradient id="linear-gradient-9-scrum-board-51" x1="298.58" y1="3768.45" x2="303.5" y2="3653.88" gradientTransform="translate(-31 3954.29) scale(1 -1)" xlink:href="#linear-gradient-scrum-board-51"/><linearGradient id="linear-gradient-10-scrum-board-51" x1="298.58" y1="3744.22" x2="303.5" y2="3629.66" gradientTransform="translate(-31 3954.29) scale(1 -1)" xlink:href="#linear-gradient-scrum-board-51"/><linearGradient id="linear-gradient-11-scrum-board-51" x1="176.81" y1="3754.66" x2="181.75" y2="3640.1" gradientTransform="translate(-31 3954.29) scale(1 -1)" xlink:href="#linear-gradient-scrum-board-51"/><linearGradient id="linear-gradient-12-scrum-board-51" x1="176.81" y1="3739.05" x2="181.75" y2="3624.49" gradientTransform="translate(-31 3954.29) scale(1 -1)" xlink:href="#linear-gradient-scrum-board-51"/><linearGradient id="linear-gradient-13-scrum-board-51" x1="176.81" y1="3723.45" x2="181.75" y2="3608.89" gradientTransform="translate(-31 3954.29) scale(1 -1)" xlink:href="#linear-gradient-scrum-board-51"/><linearGradient id="linear-gradient-14-scrum-board-51" x1="176.81" y1="3695.12" x2="181.75" y2="3580.55" gradientTransform="translate(-31 3954.29) scale(1 -1)" xlink:href="#linear-gradient-scrum-board-51"/><linearGradient id="linear-gradient-15-scrum-board-51" x1="176.81" y1="3667.71" x2="181.75" y2="3553.14" gradientTransform="translate(-31 3954.29) scale(1 -1)" xlink:href="#linear-gradient-scrum-board-51"/><linearGradient id="linear-gradient-16-scrum-board-51" x1="368.11" y1="3656.08" x2="579.44" y2="3567.94" gradientTransform="translate(-37.25 3936.4) scale(1 -1)" xlink:href="#linear-gradient-scrum-board-51"/><linearGradient id="linear-gradient-17-scrum-board-51" x1="403.91" y1="3707.94" x2="401.8" y2="3645.63" xlink:href="#linear-gradient-2-scrum-board-51"/><linearGradient id="linear-gradient-18-scrum-board-51" x1="451.52" y1="3602.95" x2="413.43" y2="3645.78" gradientTransform="translate(-37.25 3936.4) scale(1 -1)" xlink:href="#linear-gradient-scrum-board-51"/></defs><g id="background_scrum-board-51"><path class="cls-21_scrum-board-51 targetColor" d="M480.16,401.4c-1.84,9.64-5.98,18.55-13.1,25.32-19.75,18.78-51.22,13.36-78.06,8.72-47.19-8.19-95.26-10.09-142.96-5.66-53.87,5.01-109.94,17.85-160.78-.67-15.04-5.33-28.17-14.97-37.77-27.71-.91-1.14-1.75-2.3-2.51-3.47-7.46-10.79-12.64-23.36-16.21-36.93-.38-1.48-.73-3-1.08-4.52-10.6-46.35-2.27-103.19,6.16-141.92,3.7-17.01,8.57-33.9,16.77-49.27,21-39.51,62.36-65.3,105.79-76.01,43.44-10.71,89.08-7.93,133.39-1.7,35.47,4.96,72.57,13.07,98.88,37.37,24.41,22.52,35.78,55.77,42.66,88.3,6.87,32.53,10.22,66.1,22.58,96.93,7.82,19.46,19.13,37.59,24.59,57.83.82,3.02,1.46,6.09,1.93,9.18,1.27,8.03,1.18,16.22-.28,24.22Z" style="fill: rgb(95, 37, 159);"/><path class="cls-2_scrum-board-51" d="M480.16,401.4H46.51l-1.51-3.47-16.22-36.93-1.93-4.49h.88l439.27-9.86,13.42,30.48c1.28,8.05,1.2,16.25-.26,24.27Z"/></g><g id="screen_scrum-board-51"><path class="cls-26_scrum-board-51" d="M24.35,163.24h97.78c4.39,0,7.94,3.55,7.94,7.94h0c0,4.38-3.56,7.94-7.94,7.94H24.35c-4.39,0-7.94-3.55-7.94-7.94h0c0-4.38,3.56-7.94,7.94-7.94Z"/><path class="cls-26_scrum-board-51" d="M141.38,163.24h97.78c4.39,0,7.94,3.55,7.94,7.94h0c0,4.38-3.56,7.94-7.94,7.94h-97.78c-4.39,0-7.94-3.55-7.94-7.94h0c0-4.38,3.56-7.94,7.94-7.94Z"/><path class="cls-26_scrum-board-51" d="M258.41,163.24h97.78c4.39,0,7.94,3.55,7.94,7.94h0c0,4.38-3.56,7.94-7.94,7.94h-97.78c-4.39,0-7.94-3.55-7.94-7.94h0c0-4.38,3.56-7.94,7.94-7.94Z"/><path class="cls-26_scrum-board-51" d="M375.44,163.24h97.78c4.39,0,7.94,3.55,7.94,7.94h0c0,4.38-3.56,7.94-7.94,7.94h-97.78c-4.39,0-7.94-3.55-7.94-7.94h0c0-4.38,3.56-7.94,7.94-7.94Z"/><rect class="cls-25_scrum-board-51 targetColor" x="4.64" y="144.63" width="491.93" height="224.2" rx="14.37" ry="14.37" style="fill: rgb(95, 37, 159);"/><rect class="cls-13_scrum-board-51" x="4.64" y="137.24" width="491.93" height="224.2" rx="14.37" ry="14.37"/><rect class="cls-1_scrum-board-51 targetColor" x="376.74" y="166.53" width="108.24" height="16.42" rx="3.99" ry="3.99" style="fill: rgb(95, 37, 159);"/><rect class="cls-23_scrum-board-51" x="18.05" y="188.08" width="106.77" height="157.48" rx="7.29" ry="7.29"/><rect class="cls-23_scrum-board-51" x="136.32" y="187.89" width="110.05" height="50.37" rx="9.86" ry="9.86"/><rect class="cls-23_scrum-board-51" x="136.32" y="245.78" width="110.05" height="52.25" rx="10.04" ry="10.04"/><rect class="cls-23_scrum-board-51" x="136.32" y="304.22" width="110.05" height="50.37" rx="9.86" ry="9.86"/><rect class="cls-23_scrum-board-51" x="257.31" y="189.52" width="110.05" height="20.47" rx="9.34" ry="9.34"/><rect class="cls-23_scrum-board-51" x="375.02" y="191.16" width="110.05" height="17.33" rx="5.78" ry="5.78"/><rect class="cls-1_scrum-board-51 targetColor" x="17.51" y="166.53" width="107.85" height="16.42" rx="3.98" ry="3.98" style="fill: rgb(95, 37, 159);"/><rect class="cls-20_scrum-board-51 targetColor" x="136.93" y="166.53" width="107.85" height="16.42" rx="3.98" ry="3.98" style="fill: rgb(95, 37, 159);"/><rect class="cls-1_scrum-board-51 targetColor" x="257.66" y="166.53" width="108.24" height="16.42" rx="3.99" ry="3.99" style="fill: rgb(95, 37, 159);"/><rect class="cls-14_scrum-board-51" x="257.66" y="166.53" width="108.24" height="16.42" rx="3.99" ry="3.99"/><rect class="cls-12_scrum-board-51" x="377.56" y="166.53" width="108.24" height="16.42" rx="3.99" ry="3.99"/><circle class="cls-18_scrum-board-51" cx="148.26" cy="201.6" r="5.85"/><circle class="cls-19_scrum-board-51" cx="148.26" cy="219.47" r="5.85"/><rect class="cls-1_scrum-board-51 targetColor" x="27.09" y="198.83" width="45.68" height="4.38" rx="2.19" ry="2.19" style="fill: rgb(95, 37, 159);"/><path class="cls-1_scrum-board-51 targetColor" d="M29.27,211.97h38.06c1.21,0,2.19.98,2.19,2.19h0c0,1.21-.98,2.19-2.19,2.19H29.27c-1.21,0-2.19-.98-2.19-2.19h0c0-1.21.98-2.19,2.19-2.19Z" style="fill: rgb(95, 37, 159);"/><path class="cls-1_scrum-board-51 targetColor" d="M29.27,240.44h38.06c1.21,0,2.19.98,2.19,2.19h0c0,1.21-.98,2.19-2.19,2.19H29.27c-1.21,0-2.19-.98-2.19-2.19h0c0-1.21.98-2.19,2.19-2.19Z" style="fill: rgb(95, 37, 159);"/><path class="cls-1_scrum-board-51 targetColor" d="M29.27,251.39h72.43c1.21,0,2.19.98,2.19,2.19h0c0,1.21-.98,2.19-2.19,2.19H29.27c-1.21,0-2.19-.98-2.19-2.19h0c0-1.21.98-2.19,2.19-2.19Z" style="fill: rgb(95, 37, 159);"/><rect class="cls-1_scrum-board-51 targetColor" x="160.13" y="198.02" width="76.8" height="4.38" rx="2.19" ry="2.19" style="fill: rgb(95, 37, 159);"/><circle class="cls-17_scrum-board-51" cx="269.25" cy="200.58" r="5.85"/><rect class="cls-1_scrum-board-51 targetColor" x="281.13" y="196.98" width="76.8" height="4.38" rx="2.19" ry="2.19" style="fill: rgb(95, 37, 159);"/><circle class="cls-15_scrum-board-51" cx="390.39" cy="200.58" r="5.85"/><rect class="cls-1_scrum-board-51 targetColor" x="402.27" y="196.98" width="76.8" height="4.38" rx="2.19" ry="2.19" style="fill: rgb(95, 37, 159);"/><rect class="cls-23_scrum-board-51" x="257.31" y="213.75" width="110.05" height="20.47" rx="9.34" ry="9.34"/><circle class="cls-16_scrum-board-51" cx="269.25" cy="224.81" r="5.85"/><path class="cls-1_scrum-board-51 targetColor" d="M283.32,221.21h72.43c1.21,0,2.19.98,2.19,2.19h0c0,1.21-.98,2.19-2.19,2.19h-72.43c-1.21,0-2.19-.98-2.19-2.19h0c0-1.21.98-2.19,2.19-2.19Z" style="fill: rgb(95, 37, 159);"/><rect class="cls-23_scrum-board-51" x="257.31" y="237.98" width="110.05" height="20.47" rx="9.34" ry="9.34"/><circle class="cls-6_scrum-board-51" cx="269.25" cy="249.03" r="5.85"/><path class="cls-1_scrum-board-51 targetColor" d="M283.32,245.44h72.43c1.21,0,2.19.98,2.19,2.19h0c0,1.21-.98,2.19-2.19,2.19h-72.43c-1.21,0-2.19-.98-2.19-2.19h0c0-1.21.98-2.19,2.19-2.19Z" style="fill: rgb(95, 37, 159);"/><rect class="cls-1_scrum-board-51 targetColor" x="160.13" y="216.63" width="63.98" height="4.38" rx="2" ry="2" style="fill: rgb(95, 37, 159);"/><circle class="cls-3_scrum-board-51" cx="148.26" cy="256.42" r="5.85"/><rect class="cls-1_scrum-board-51 targetColor" x="160.13" y="253.59" width="63.98" height="4.38" rx="2" ry="2" style="fill: rgb(95, 37, 159);"/><circle class="cls-4_scrum-board-51" cx="148.26" cy="272.02" r="5.85"/><rect class="cls-1_scrum-board-51 targetColor" x="160.13" y="269.19" width="63.98" height="4.38" rx="2" ry="2" style="fill: rgb(95, 37, 159);"/><circle class="cls-5_scrum-board-51" cx="148.26" cy="287.63" r="5.85"/><rect class="cls-1_scrum-board-51 targetColor" x="160.13" y="284.79" width="63.98" height="4.38" rx="2" ry="2" style="fill: rgb(95, 37, 159);"/><circle class="cls-11_scrum-board-51" cx="148.26" cy="315.96" r="5.85"/><rect class="cls-1_scrum-board-51 targetColor" x="160.13" y="313.13" width="63.98" height="4.38" rx="2" ry="2" style="fill: rgb(95, 37, 159);"/><circle class="cls-9_scrum-board-51" cx="148.26" cy="343.37" r="5.85"/><rect class="cls-1_scrum-board-51 targetColor" x="160.13" y="327.77" width="63.98" height="4.38" rx="2" ry="2" style="fill: rgb(95, 37, 159);"/><rect class="cls-1_scrum-board-51 targetColor" x="160.13" y="342" width="63.98" height="4.38" rx="2" ry="2" style="fill: rgb(95, 37, 159);"/><path class="cls-1_scrum-board-51 targetColor" d="M29.27,286.43h38.06c1.21,0,2.19.98,2.19,2.19h0c0,1.21-.98,2.19-2.19,2.19H29.27c-1.21,0-2.19-.98-2.19-2.19h0c0-1.21.98-2.19,2.19-2.19Z" style="fill: rgb(95, 37, 159);"/><path class="cls-1_scrum-board-51 targetColor" d="M29.27,297.38h72.43c1.21,0,2.19.98,2.19,2.19h0c0,1.21-.98,2.19-2.19,2.19H29.27c-1.21,0-2.19-.98-2.19-2.19h0c0-1.21.98-2.19,2.19-2.19Z" style="fill: rgb(95, 37, 159);"/><path class="cls-23_scrum-board-51" d="M162.52,172.27h-1.88v-.68h4.58v.68h-1.93v5.5h-.81l.04-5.5Z"/><path class="cls-23_scrum-board-51" d="M167.76,177.78l-.07-.56h0c-.32.43-.83.67-1.36.66-.7.05-1.3-.47-1.36-1.16,0-.04,0-.07,0-.11,0-1.07.96-1.66,2.68-1.65v-.1c.03-.53-.37-.99-.9-1.02-.04,0-.07,0-.11,0-.41,0-.81.11-1.16.33l-.18-.53c.44-.27.94-.4,1.46-.4,1.36,0,1.69.96,1.69,1.81v1.67c0,.35.02.71.08,1.06h-.76ZM167.63,175.51c-.88,0-1.93.13-1.93.96-.03.39.26.74.65.77.04,0,.07,0,.11,0,.48.01.92-.29,1.08-.74.01-.09.01-.17,0-.26l.09-.73Z"/><path class="cls-23_scrum-board-51" d="M169.61,176.95c.32.2.68.31,1.06.33.59,0,.87-.3.87-.67s-.23-.6-.83-.82c-.8-.28-1.18-.72-1.18-1.25.03-.76.67-1.34,1.42-1.31.04,0,.07,0,.11,0,.38,0,.76.09,1.1.27l-.2.59c-.27-.16-.59-.25-.91-.25-.48,0-.75.27-.75.6s.27.54.85.75c.77.3,1.17.68,1.17,1.35s-.61,1.33-1.66,1.33c-.44,0-.87-.1-1.25-.31l.2-.62Z"/><path class="cls-23_scrum-board-51" d="M174.15,175.38h0c.12-.16.27-.36.4-.51l1.3-1.53h.96l-1.72,1.83,1.93,2.61h-.96l-1.49-2.12-.41.46v1.67h-.8v-6.52h.8v4.11Z"/><path class="cls-23_scrum-board-51" d="M180.5,172.09c.01.26-.19.48-.45.49-.02,0-.04,0-.06,0-.27,0-.49-.21-.49-.47,0,0,0-.01,0-.02,0-.28.21-.51.49-.51,0,0,.01,0,.02,0,.27,0,.49.21.49.47,0,.01,0,.03,0,.04ZM179.6,177.78v-4.44h.8v4.44h-.8Z"/><path class="cls-23_scrum-board-51" d="M181.73,174.54v-1.2h.72l.05.73h0c.3-.53.87-.84,1.47-.83.62,0,1.57.37,1.57,1.93v2.65h-.81v-2.56c0-.71-.27-1.31-1.03-1.31-.5,0-.94.34-1.08.83-.04.12-.06.25-.06.38v2.67h-.84v-3.28Z"/><path class="cls-23_scrum-board-51" d="M188.8,171.67c.51-.08,1.02-.12,1.53-.12.62-.05,1.24.13,1.73.51.36.33.56.8.54,1.29.02.49-.15.96-.47,1.32-.52.49-1.22.73-1.93.68-.22,0-.43-.01-.65-.06v2.48h-.8l.04-6.11ZM189.6,174.64c.22.05.44.07.67.07.96,0,1.55-.47,1.55-1.32s-.58-1.21-1.46-1.21c-.25,0-.5.02-.75.07v2.4Z"/><path class="cls-23_scrum-board-51" d="M193.52,174.69v-1.39h.7v.88h0c.16-.55.65-.94,1.22-.96.08-.01.15-.01.23,0v.76c-.09-.01-.18-.01-.27,0-.57.02-1.04.46-1.09,1.03-.01.13-.01.25,0,.38v2.37h-.79v-3.06Z"/><path class="cls-23_scrum-board-51" d="M200.44,175.52c.1,1.19-.78,2.24-1.98,2.34-.08,0-.15,0-.23,0-1.17.01-2.12-.92-2.14-2.08,0-.07,0-.13,0-.2-.11-1.19.77-2.24,1.96-2.34.08,0,.16,0,.24,0,1.16-.03,2.12.89,2.15,2.05,0,.08,0,.15,0,.23ZM196.92,175.52c0,.96.56,1.71,1.35,1.71s1.35-.73,1.35-1.73c0-.75-.38-1.71-1.33-1.71s-1.37.9-1.37,1.77v-.05Z"/><path class="cls-23_scrum-board-51" d="M205.29,173.33v3.8c.09.74-.14,1.48-.64,2.03-.45.37-1.03.56-1.61.53-.52.01-1.03-.11-1.47-.37l.19-.62c.4.23.85.35,1.31.35.82,0,1.43-.42,1.43-1.55v-.49h0c-.3.48-.84.77-1.41.74-1.09-.02-1.96-.92-1.94-2.01,0-.05,0-.1,0-.15-.13-1.16.71-2.21,1.87-2.34.04,0,.08,0,.12-.01.57-.03,1.11.27,1.39.77h0v-.67h.74ZM204.45,175.09c.02-.12.02-.25,0-.37-.14-.51-.6-.86-1.13-.86-.77,0-1.32.66-1.32,1.69,0,.87.44,1.59,1.31,1.59.51,0,.97-.33,1.13-.82.04-.14.06-.29.06-.43l-.05-.8Z"/><path class="cls-23_scrum-board-51" d="M206.53,174.69v-1.39h.71v.88h0c.16-.55.66-.94,1.23-.96.08-.01.15-.01.23,0v.76c-.09-.01-.19-.01-.28,0-.57.02-1.04.46-1.08,1.03-.01.13-.01.25,0,.38v2.37h-.8l-.02-3.06Z"/><path class="cls-23_scrum-board-51" d="M209.89,175.7c-.07.78.5,1.47,1.28,1.54.08,0,.16,0,.24,0,.42.01.84-.07,1.22-.23l.13.58c-.47.2-.97.29-1.47.28-1.14.07-2.11-.8-2.18-1.93,0-.1,0-.21,0-.31-.13-1.18.71-2.24,1.89-2.38.06,0,.13-.01.19-.01,1.06.05,1.89.95,1.84,2.01,0,.03,0,.05,0,.08,0,.13,0,.25,0,.38h-3.14ZM212.25,175.13c.09-.63-.34-1.21-.97-1.3-.05,0-.1-.01-.15-.01-.69.05-1.23.62-1.23,1.31h2.35Z"/><path class="cls-23_scrum-board-51" d="M213.92,176.95c.32.2.69.31,1.07.33.59,0,.86-.3.86-.67s-.22-.6-.82-.82c-.8-.28-1.18-.72-1.18-1.25.03-.76.67-1.34,1.42-1.31.04,0,.07,0,.11,0,.38,0,.75.09,1.09.27l-.2.59c-.27-.16-.59-.25-.91-.25-.48,0-.74.27-.74.6s.26.54.84.75c.77.3,1.17.68,1.17,1.35s-.61,1.33-1.66,1.33c-.44,0-.87-.1-1.25-.31l.2-.62Z"/><path class="cls-23_scrum-board-51" d="M217.55,176.95c.32.2.69.31,1.07.33.59,0,.86-.3.86-.67s-.23-.6-.82-.82c-.8-.28-1.18-.72-1.18-1.25.03-.76.67-1.34,1.42-1.31.04,0,.07,0,.11,0,.38,0,.75.09,1.09.27l-.2.59c-.27-.16-.59-.25-.91-.25-.48,0-.74.27-.74.6s.26.54.84.75c.77.3,1.17.68,1.17,1.35s-.61,1.33-1.66,1.33c-.42,0-.84-.09-1.21-.29l.16-.64Z"/><path class="cls-23_scrum-board-51" d="M43.34,171.59v3.66c0,1.39.61,1.93,1.44,1.93s1.5-.61,1.5-1.93v-3.66h.81v3.6c0,1.93-.96,2.68-2.34,2.68s-2.22-.72-2.22-2.64v-3.64h.81Z"/><path class="cls-23_scrum-board-51" d="M48.29,176.95c.32.2.68.32,1.06.33.59,0,.87-.3.87-.67s-.23-.6-.83-.82c-.8-.28-1.18-.72-1.18-1.25.03-.76.67-1.34,1.42-1.31.04,0,.07,0,.11,0,.38,0,.76.09,1.09.27l-.2.59c-.27-.16-.59-.25-.91-.25-.47,0-.74.27-.74.6s.27.54.85.75c.77.3,1.17.68,1.17,1.35s-.61,1.33-1.67,1.33c-.43,0-.86-.1-1.24-.31l.2-.62Z"/><path class="cls-23_scrum-board-51" d="M52.48,175.7c-.07.79.52,1.47,1.3,1.54.07,0,.15,0,.22,0,.42.01.84-.07,1.22-.23l.14.58c-.47.2-.98.29-1.48.28-1.14.07-2.11-.8-2.18-1.94,0-.09,0-.19,0-.28-.13-1.18.71-2.24,1.89-2.38.06,0,.13-.01.19-.01,1.06.05,1.89.95,1.84,2.01,0,.03,0,.05,0,.08,0,.13,0,.25,0,.38l-3.14-.03ZM54.84,175.13c.09-.63-.34-1.21-.97-1.3-.05,0-.1-.01-.15-.01-.69.05-1.23.62-1.23,1.31h2.35Z"/><path class="cls-23_scrum-board-51" d="M56.62,174.69v-1.39h.7v.88h0c.16-.55.66-.94,1.23-.96.07-.01.15-.01.22,0v.76c-.09-.01-.18-.01-.27,0-.57.02-1.04.46-1.08,1.03-.01.13-.01.25,0,.38v2.37h-.8v-3.06Z"/><path class="cls-23_scrum-board-51" d="M61.48,176.8c.43.26.93.4,1.44.4.82,0,1.29-.43,1.29-1.06s-.33-.91-1.17-1.22c-.96-.36-1.63-.88-1.63-1.75.05-.98.88-1.73,1.85-1.69.05,0,.09,0,.14.01.47-.02.94.09,1.37.3l-.22.66c-.36-.2-.76-.3-1.18-.3-.84,0-1.16.51-1.16.96,0,.57.38.86,1.22,1.19,1.05.4,1.58.96,1.58,1.82s-.7,1.78-2.17,1.78c-.55,0-1.09-.13-1.58-.4l.2-.7Z"/><path class="cls-23_scrum-board-51" d="M67.04,172.06v1.27h1.16v.62h-1.16v2.39c0,.56.15.87.61.87.16,0,.32-.02.47-.06v.61c-.23.08-.48.12-.72.12-.33.02-.64-.11-.87-.35-.25-.33-.37-.74-.32-1.16v-2.42h-.68v-.62h.68v-1.06l.83-.21Z"/><path class="cls-23_scrum-board-51" d="M73.07,175.52c.1,1.19-.78,2.24-1.98,2.34-.06,0-.13,0-.19,0-1.17.01-2.12-.92-2.14-2.08,0-.07,0-.13,0-.2-.1-1.19.78-2.24,1.98-2.34.05,0,.1,0,.15,0,1.16-.04,2.13.86,2.18,2.02,0,.09,0,.17,0,.26ZM69.54,175.52c0,.96.56,1.71,1.35,1.71s1.35-.73,1.35-1.73c0-.75-.38-1.71-1.33-1.71s-1.37.9-1.37,1.77v-.05Z"/><path class="cls-23_scrum-board-51" d="M74.08,174.69v-1.39h.67v.88h0c.16-.55.66-.94,1.23-.96.08-.01.15-.01.23,0v.76c-.09-.01-.19-.01-.28,0-.57.02-1.04.46-1.08,1.03-.01.13-.01.25,0,.38v2.37h-.78v-3.06Z"/><path class="cls-23_scrum-board-51" d="M78.02,172.09c-.08.27-.35.42-.62.34-.17-.05-.3-.18-.34-.34-.01-.27.2-.5.47-.51,0,0,.02,0,.03,0,.27.01.47.23.46.5,0,0,0,0,0,.01ZM77.11,177.78v-4.44h.81v4.44h-.81Z"/><path class="cls-23_scrum-board-51" d="M79.72,175.7c-.07.79.52,1.47,1.3,1.54.07,0,.15,0,.22,0,.42.01.84-.07,1.22-.23l.14.58c-.47.2-.98.29-1.48.28-1.14.07-2.11-.8-2.18-1.94,0-.09,0-.19,0-.28-.13-1.18.71-2.24,1.89-2.38.06,0,.13-.01.19-.01,1.06.05,1.89.95,1.84,2.01,0,.03,0,.05,0,.08,0,.13,0,.25,0,.38l-3.14-.03ZM82.08,175.13c.09-.63-.34-1.21-.97-1.3-.05,0-.1-.01-.15-.01-.69.05-1.23.62-1.23,1.31h2.35Z"/><path class="cls-23_scrum-board-51" d="M83.74,176.95c.32.2.69.31,1.07.33.59,0,.86-.3.86-.67s-.22-.6-.82-.82c-.8-.28-1.18-.72-1.18-1.25.03-.76.67-1.34,1.42-1.31.04,0,.07,0,.11,0,.38,0,.76.09,1.09.27l-.2.59c-.27-.16-.59-.25-.91-.25-.48,0-.74.27-.74.6s.26.54.84.75c.77.3,1.17.68,1.17,1.35s-.6,1.33-1.66,1.33c-.44,0-.87-.1-1.25-.31l.2-.62Z"/><path class="cls-23_scrum-board-51" d="M282.29,172.27h-1.88v-.68h4.58v.68h-1.93v5.5h-.81l.04-5.5Z"/><path class="cls-23_scrum-board-51" d="M287.52,177.78l-.07-.56h0c-.32.43-.83.67-1.36.66-.7.05-1.3-.47-1.36-1.16,0-.04,0-.07,0-.11,0-1.07.96-1.66,2.67-1.65v-.1c.07-.5-.28-.95-.78-1.02-.06,0-.12,0-.18,0-.41,0-.81.11-1.16.33l-.18-.53c.44-.27.94-.4,1.46-.4,1.36,0,1.69.96,1.69,1.81v1.67c0,.35.02.71.08,1.06h-.8ZM287.4,175.51c-.88,0-1.88.13-1.88.96-.03.39.26.74.65.77.04,0,.07,0,.11,0,.48.01.92-.29,1.08-.74,0-.09,0-.17,0-.26l.04-.73Z"/><path class="cls-23_scrum-board-51" d="M289.37,176.95c.32.2.68.31,1.06.33.59,0,.87-.3.87-.67s-.23-.6-.83-.82c-.8-.28-1.18-.72-1.18-1.25.03-.76.67-1.34,1.42-1.31.04,0,.07,0,.11,0,.38,0,.76.09,1.1.27l-.2.59c-.28-.16-.59-.25-.92-.25-.47,0-.74.27-.74.6s.27.54.85.75c.77.3,1.17.68,1.17,1.35s-.61,1.33-1.67,1.33c-.43,0-.86-.1-1.24-.31l.2-.62Z"/><path class="cls-23_scrum-board-51" d="M293.91,175.38h0c.12-.16.27-.36.4-.51l1.3-1.53h.96l-1.72,1.83,1.93,2.61h-.96l-1.49-2.12-.41.46v1.67h-.8v-6.52h.8v4.11Z"/><path class="cls-23_scrum-board-51" d="M303.71,177.58c-.52.21-1.08.31-1.64.3-1.59.1-2.96-1.12-3.06-2.71,0-.14,0-.28,0-.42-.1-1.7,1.2-3.15,2.89-3.25.11,0,.22,0,.34,0,.51-.02,1.01.07,1.47.27l-.19.66c-.39-.18-.82-.27-1.25-.26-1.27-.07-2.35.91-2.42,2.18,0,.12,0,.25.01.37-.13,1.23.77,2.34,2,2.47.11.01.22.01.33,0,.45,0,.9-.08,1.31-.26l.2.65Z"/><path class="cls-23_scrum-board-51" d="M308.6,175.52c.1,1.19-.78,2.24-1.98,2.34-.08,0-.15,0-.23,0-1.17.01-2.12-.92-2.14-2.08,0-.07,0-.13,0-.2-.11-1.19.77-2.24,1.96-2.34.08,0,.16,0,.24,0,1.16-.03,2.12.89,2.15,2.05,0,.08,0,.15,0,.23ZM305.08,175.52c0,.96.56,1.71,1.34,1.71s1.36-.73,1.36-1.73c0-.75-.39-1.71-1.34-1.71s-1.35.9-1.35,1.77v-.05Z"/><path class="cls-23_scrum-board-51" d="M309.62,174.54v-1.2h.7v.71h0c.28-.51.82-.82,1.4-.81.56,0,1.07.35,1.25.89h0c.12-.23.29-.42.49-.58.28-.21.62-.32.96-.31.59,0,1.46.39,1.46,1.93v2.61h-.79v-2.52c0-.85-.32-1.37-.96-1.37-.44.02-.83.31-.96.73-.04.13-.07.27-.07.4v2.75h-.79v-2.66c0-.7-.31-1.22-.96-1.22-.46.05-.84.37-.96.81-.04.13-.06.26-.06.4v2.68h-.79l.08-3.24Z"/><path class="cls-23_scrum-board-51" d="M317.27,174.79v-1.46h.72v.76h0c.32-.55.93-.88,1.57-.86,1.11.04,1.98.97,1.94,2.09,0,.06,0,.11-.01.17.15,1.15-.65,2.21-1.8,2.36-.07,0-.15.02-.22.02-.55.03-1.07-.24-1.37-.69h0v2.42h-.79l-.04-4.81ZM318.07,175.96c-.01.11-.01.23,0,.34.13.57.63.97,1.21.96.85,0,1.35-.7,1.35-1.72s-.47-1.66-1.32-1.66c-.7.07-1.24.63-1.28,1.33l.04.74Z"/><path class="cls-23_scrum-board-51" d="M322.49,171.26h.81v6.52h-.81v-6.52Z"/><path class="cls-23_scrum-board-51" d="M325.1,175.7c-.07.79.52,1.47,1.3,1.54.07,0,.15,0,.22,0,.42.01.84-.07,1.23-.23l.13.58c-.47.2-.97.29-1.47.28-1.14.05-2.11-.84-2.15-1.99,0-.08,0-.15,0-.23-.13-1.18.71-2.24,1.89-2.38.07,0,.13-.01.2-.01,1.06.05,1.89.95,1.84,2.01,0,.03,0,.05,0,.08,0,.13,0,.25,0,.38l-3.19-.03ZM327.47,175.13c.09-.63-.34-1.21-.97-1.3-.05,0-.1-.01-.15-.01-.69.05-1.23.62-1.24,1.31h2.36Z"/><path class="cls-23_scrum-board-51" d="M330.23,172.06v1.27h1.16v.62h-1.16v2.39c0,.56.15.87.6.87.16,0,.32-.02.47-.06v.61c-.23.08-.48.12-.72.12-.33.02-.64-.11-.87-.35-.25-.33-.36-.75-.31-1.16v-2.42h-.69v-.62h.69v-1.06l.83-.21Z"/><path class="cls-23_scrum-board-51" d="M332.69,175.7c-.07.79.52,1.47,1.3,1.54.07,0,.15,0,.22,0,.42.01.84-.07,1.22-.23l.14.58c-.47.2-.98.29-1.48.28-1.14.07-2.11-.8-2.18-1.93,0-.1,0-.21,0-.31-.13-1.18.71-2.24,1.89-2.38.06,0,.13-.01.19-.01,1.06.05,1.89.95,1.84,2.01,0,.03,0,.05,0,.08,0,.13,0,.25,0,.38h-3.14ZM335.05,175.13c.09-.63-.34-1.21-.97-1.3-.05,0-.1-.01-.15-.01-.69.05-1.23.62-1.23,1.31h2.35Z"/><path class="cls-23_scrum-board-51" d="M340.67,171.26v6.51h-.73v-.77h0c-.3.55-.88.89-1.51.87-1.11-.04-1.98-.97-1.94-2.09,0-.06,0-.11.01-.17-.15-1.16.68-2.22,1.84-2.37.05,0,.1-.01.15-.01.54-.03,1.05.22,1.34.67h0v-2.65h.85ZM339.86,175.12c.01-.11.01-.23,0-.34-.11-.56-.6-.96-1.17-.96-.83,0-1.33.74-1.33,1.72s.44,1.65,1.31,1.65c.57,0,1.07-.4,1.19-.96.01-.12.01-.23,0-.35v-.75Z"/><path class="cls-23_scrum-board-51" d="M413.56,172.27h-1.93v-.68h4.58v.68h-1.93v5.5h-.81l.09-5.5Z"/><path class="cls-23_scrum-board-51" d="M418.82,177.78l-.07-.56h0c-.32.42-.83.67-1.36.66-.7.05-1.3-.47-1.36-1.16,0-.04,0-.07,0-.11,0-1.07.96-1.66,2.67-1.65v-.1c.07-.5-.28-.95-.78-1.02-.06,0-.12,0-.18,0-.41,0-.81.11-1.16.33l-.18-.53c.44-.27.94-.4,1.46-.4,1.36,0,1.69.96,1.69,1.81v1.67c0,.35.02.71.08,1.06h-.8ZM418.69,175.51c-.88,0-1.88.13-1.88.96-.03.39.26.74.65.77.04,0,.07,0,.11,0,.48.01.91-.29,1.07-.74.01-.09.01-.17,0-.26l.05-.73Z"/><path class="cls-23_scrum-board-51" d="M420.64,176.95c.32.2.68.31,1.06.33.59,0,.87-.3.87-.67s-.23-.6-.83-.82c-.8-.28-1.18-.72-1.18-1.25.03-.76.67-1.34,1.42-1.31.04,0,.07,0,.11,0,.38,0,.76.09,1.1.27l-.2.59c-.28-.16-.59-.25-.92-.25-.47,0-.74.27-.74.6s.27.54.85.75c.77.3,1.17.68,1.17,1.35s-.61,1.33-1.67,1.33c-.43,0-.86-.1-1.24-.31l.2-.62Z"/><path class="cls-23_scrum-board-51" d="M425.18,175.38h0c.11-.16.27-.36.4-.51l1.3-1.53h.96l-1.72,1.83,1.93,2.61h-.96l-1.52-2.12-.41.46v1.67h-.8v-6.52h.8l.03,4.11Z"/><path class="cls-23_scrum-board-51" d="M434.98,177.58c-.52.21-1.08.31-1.64.3-1.59.1-2.96-1.12-3.06-2.71,0-.14,0-.28,0-.42-.1-1.7,1.2-3.15,2.89-3.25.11,0,.22,0,.34,0,.51-.02,1.01.07,1.47.27l-.19.66c-.39-.18-.82-.27-1.25-.26-1.27-.07-2.35.91-2.42,2.18,0,.12,0,.25.01.37-.14,1.23.75,2.34,1.99,2.48.13.01.26.02.38,0,.45,0,.9-.08,1.31-.26l.16.64Z"/><path class="cls-23_scrum-board-51" d="M435.95,171.26h.8v6.52h-.8v-6.52Z"/><path class="cls-23_scrum-board-51" d="M442.13,175.52c.1,1.19-.78,2.24-1.98,2.34-.08,0-.15,0-.23,0-1.17.01-2.12-.92-2.14-2.08,0-.07,0-.13,0-.2-.11-1.19.77-2.24,1.96-2.34.08,0,.16,0,.24,0,1.16-.03,2.12.89,2.15,2.05,0,.08,0,.15,0,.23ZM438.61,175.52c0,.96.56,1.71,1.35,1.71s1.34-.73,1.34-1.73c0-.75-.38-1.71-1.33-1.71s-1.36.9-1.36,1.77v-.05Z"/><path class="cls-23_scrum-board-51" d="M443.04,176.95c.32.2.69.31,1.07.33.59,0,.86-.3.86-.67s-.23-.6-.82-.82c-.8-.28-1.18-.72-1.18-1.25.03-.76.67-1.34,1.42-1.31.04,0,.07,0,.11,0,.38,0,.75.09,1.09.27l-.2.59c-.27-.16-.59-.25-.91-.25-.48,0-.74.27-.74.6s.26.54.84.75c.77.3,1.17.68,1.17,1.35s-.61,1.33-1.66,1.33c-.44,0-.87-.1-1.25-.31l.2-.62Z"/><path class="cls-23_scrum-board-51" d="M447.23,175.7c-.07.79.52,1.47,1.3,1.54.07,0,.15,0,.22,0,.42.01.84-.07,1.23-.23l.13.58c-.47.2-.97.29-1.47.28-1.14.07-2.12-.8-2.19-1.95,0-.1,0-.2,0-.3-.13-1.18.71-2.24,1.89-2.38.06,0,.13-.01.19-.01,1.06.04,1.89.94,1.85,2.01,0,.03,0,.06,0,.09,0,.13,0,.25,0,.38h-3.15ZM449.6,175.13c.09-.63-.34-1.21-.97-1.3-.05,0-.1-.01-.15-.01-.69.05-1.23.62-1.24,1.31h2.36Z"/><path class="cls-23_scrum-board-51" d="M455.21,171.26v6.51h-.72v-.77h0c-.3.56-.88.89-1.51.87-1.12-.05-1.99-.99-1.94-2.11,0-.05,0-.1.01-.15-.15-1.16.68-2.22,1.84-2.37.05,0,.1-.01.15-.01.54-.03,1.05.23,1.34.67h0v-2.65h.83ZM454.41,175.12c.01-.11.01-.23,0-.34-.11-.56-.6-.96-1.17-.96-.84,0-1.33.74-1.33,1.72s.44,1.65,1.31,1.65c.57,0,1.07-.4,1.19-.96.01-.12.01-.23,0-.35v-.75Z"/></g><g id="character_scrum-board-51"><path class="cls-8_scrum-board-51" d="M385.25,338.88c-.08-2.57-.66-5.11-1.72-7.46-3.53-6.7-12.75-7.44-18.94-11.81-4.97-3.52-7.84-9.43-8.94-15.42-1.11-5.99-.67-12.14-.21-18.22.13-1.73.31-3.59,1.47-4.88,2.53-2.8,7.11-.8,10.23,1.33l8.29,5.67c1.75,1.2,4.16,2.39,5.78,1.08,1.1-.87,1.28-2.43,1.39-3.86l1.57-21.88c.43-6.04,1.47-13.08,6.75-15.99,5.27-2.91,12.15.2,15.48,5.17,3.33,4.96,3.95,11.21,4.39,17.16,2.23,31.32,1.76,62.77-1.4,94.01-.13,1.23-.35,2.62-1.37,3.33-.8.42-1.71.58-2.61.46-5.78-.18-16.24,2-19.07-4.08s-.48-17.9-1.08-24.62Z"/><polygon class="cls-7_scrum-board-51" points="353.68 275.82 377.29 269.46 389.4 297.59 385.39 305.39 369.17 304.46 353.68 275.82"/><path class="cls-24_scrum-board-51" d="M357.95,296.97c-.34-2.47-.29-4.97.16-7.42.04-.38.16-.76.36-1.09.7-1.02,2.38-.62,3.19.31s1.17,2.19,1.93,3.14c.65.78,1.54,1.31,2.26,2.03,1.14,1.31,1.91,2.9,2.22,4.61.12.43.17.88.14,1.33-.13.62-.4,1.21-.79,1.72-1.26,1.93-3.42,4.59-5.78,2.76-2.15-1.65-3.28-4.83-3.68-7.38Z"/><path class="cls-22_scrum-board-51" d="M392,331.33l5.58,93.29,10.18,1.49,4.65-70.84,4.2,70.67,10.08.33s4.66-71.37,3.64-76.61c-1.02-5.24,0-21.91,0-21.91l-38.33,3.57Z"/><path class="cls-25_scrum-board-51 targetColor" d="M390.41,322.27c-4.92-2.99-9.7-15.66-7.58-18.74,2.55-3.69,6.36-29.29,9.72-32.23,3.36-2.94,7.62-5.05,12.06-4.89,5.22.19,11.01-2.26,15.88-.27,2.75,1.12,5.04,3.15,7.27,5.16,3.5,3.13,6.23,55.9,2.3,61.68-5.02,7.33-15.35,7.58-24.09,7.07-3.02-.17-6.16-.39-8.8-1.93-6.65-3.85-7.48-8.1-6.77-15.86Z" style="fill: rgb(95, 37, 159);"/><path class="cls-24_scrum-board-51" d="M390.99,248.61c-.4,2.7.15,5.46,1.56,7.8,1.88,2.89,5.45,4.69,6.08,8.03.3,1.52-.1,3.1,0,4.65s.96,3.29,2.55,3.43c.56.03,1.11-.1,1.61-.36,1.73-1,3.12-2.5,3.98-4.3,2.89-5.06,4.76-10.99,3.86-16.77-.91-5.78-4.98-11.26-10.66-12.66-7-1.73-8.37,4.68-8.98,10.18Z"/><path class="cls-22_scrum-board-51" d="M391.59,238.3c.8,2.84,3.2,4.97,5.73,6.5,1.28.66,2.47,1.46,3.57,2.39,3.35,3.29,2.53,8.72,2.51,13.41,0,3.32.54,6.8,2.53,9.46,3.4,4.57,9.8,5.45,15.49,5.6.61.08,1.23-.04,1.76-.36.42-.37.69-.87.76-1.43,1.12-5.23-3.81-10.12-3.4-15.42.22-3.02,2.13-5.66,2.75-8.62.9-4.29-1.03-8.76-3.86-12.1-1.14-1.44-2.59-2.59-4.25-3.36-2.98-1.24-6.48-.54-9.49-1.69-1.75-.66-3.23-1.93-4.96-2.61-4.79-1.93-10.49,3.4-9.13,8.22Z"/><path class="cls-25_scrum-board-51 targetColor" d="M369.99,299.49c-.72-.38-1.55-.49-2.34-.32-.44.19-.83.47-1.15.83-1.62,1.66-2.88,3.62-3.72,5.78-.49,1.01-.6,2.17-.32,3.26.58,1.13,1.53,2.03,2.7,2.53,7.8,4.48,17.14,10.88,26.08,10,.63-.06.41-1.93.88-2.34.51-.6.79-1.36.78-2.15.4-2.84.48-5.71.24-8.57-.24-2.88-1.44-5.59-3.4-7.71-.76-.86-1.82-1.42-2.96-1.56-1.73-.1-1.61,1.22-2.64,1.84-1.27.76-3.17.75-4.62.71-3.29-.23-6.51-1.01-9.53-2.31Z" style="fill: rgb(95, 37, 159);"/><path class="cls-10_scrum-board-51" d="M401.1,293.24s-2.89,23.13-10.7,29c0,0-2.68,14.29,9.64,16.75,3,1.01,6.19,1.34,9.34.96,0,0-11.98,3.63-9.71-20.39,2.26-24.03,1.44-26.32,1.44-26.32Z"/><path class="cls-22_scrum-board-51" d="M384.12,275.21l-5.62,6.98-.82,2.41,2.21-1.39,7.04-9.08c-.08-.41-.41-.72-.82-.77-.67-.05-1.99,1.85-1.99,1.85Z"/><path class="cls-24_scrum-board-51" d="M378.82,278.56c-.5.25-.96.58-1.37.96-.77.65-1.37,1.49-1.73,2.43-.22.73-.28,1.5-.2,2.26,0,.48.17,1.05.64,1.2.35.08.71-.03.96-.29.7-.8,1.24-1.73,1.59-2.74.65-1.25,1.73-2.15,2.48-3.32.95-1.46-1.61-.9-2.36-.51Z"/><path class="cls-24_scrum-board-51" d="M383.44,281.19c.28.51.47,1.07.75,1.58.82,1.32,1.91,2.44,3.21,3.29.1.06.19.15.26.25.08.16.1.35.05.53-.08.33-.19.66-.35.96l-1.06,2.41c-.01.06-.05.1-.11.13-.05.02-.11.02-.16,0l-3.67-1.39c-.54-.2-1.07-.43-1.58-.69-1.02-.56-1.86-1.38-2.43-2.39-.34-.45-.4-1.05-.15-1.55.33-.45.96-.47,1.43-.85.13-.13.25-.27.34-.43.56-.85,1.07-1.78,1.7-2.58.63-.8,1.4.02,1.78.74Z"/><path class="cls-22_scrum-board-51" d="M390.27,431.05c-.34.3-.55.72-.58,1.18.05.33.22.63.47.85.9.73,2,1.17,3.16,1.24,3.75.56,7.57.35,11.23-.62.92-.17,1.77-.6,2.44-1.25.66-.98.97-2.16.87-3.33l.12-4.06c.04-.33,0-.65-.11-.96-.31-.74-1.26-.96-2.06-.96-1.92-.15-3.85-.18-5.78-.11-.68,0-1.56-.11-2.1.33s-.73,1.27-1.09,1.73c-1.85,2.38-4.56,3.82-6.56,5.98Z"/><path class="cls-22_scrum-board-51" d="M409.56,431.1c-.34.28-.54.7-.56,1.14.05.32.21.6.45.81.87.71,1.94,1.14,3.06,1.21,3.62.54,7.31.34,10.84-.6.89-.16,1.71-.59,2.36-1.21.64-.95.93-2.08.84-3.22l.12-3.92c.03-.3,0-.61-.11-.9-.3-.72-1.21-.9-1.99-.96-1.86-.14-3.73-.17-5.59-.11-.66,0-1.5-.09-2.02.33s-.71,1.22-1.06,1.67c-1.79,2.26-4.4,3.65-6.34,5.76Z"/></g></svg>